<?xml version="1.0" encoding="UTF-8" standalone="no"?>
<!-- Generator: Adobe Illustrator 23.0.1, SVG Export Plug-In . SVG Version: 6.00 Build 0)  -->

<svg
   version="1.1"
   id="Layer_1"
   wide="200px"
   height="500"
   viewBox="0 0 500 500"
   xml:space="preserve"
   sodipodi:docname="ABSA_Group_Limited_Logo.svg"
   width="500"
   inkscape:version="1.4 (e7c3feb1, 2024-10-09)"
   xmlns:inkscape="http://www.inkscape.org/namespaces/inkscape"
   xmlns:sodipodi="http://sodipodi.sourceforge.net/DTD/sodipodi-0.dtd"
   xmlns="http://www.w3.org/2000/svg"
   xmlns:svg="http://www.w3.org/2000/svg"><defs
   id="defs6" /><sodipodi:namedview
   id="namedview6"
   pagecolor="#ffffff"
   bordercolor="#000000"
   borderopacity="0.25"
   inkscape:showpageshadow="2"
   inkscape:pageopacity="0.0"
   inkscape:pagecheckerboard="0"
   inkscape:deskcolor="#d1d1d1"
   inkscape:zoom="0.28959718"
   inkscape:cx="467.8913"
   inkscape:cy="37.983795"
   inkscape:window-width="1472"
   inkscape:window-height="801"
   inkscape:window-x="0"
   inkscape:window-y="34"
   inkscape:window-maximized="1"
   inkscape:current-layer="Layer_1" />
<style
   type="text/css"
   id="style1">
	.st0{fill:#A90C2B;}
</style>
<rect width="500" height="500" fill="white"/>
<g
   id="g6"
   transform="scale(2.5)">
	<g
   id="g5">
		<path
   class="st0"
   d="M 190.65,57.72 C 174.72,23.63 140.12,0 100,0 59.88,0 25.28,23.63 9.35,57.72 L 20.68,63 C 34.62,33.17 64.9,12.5 100,12.5 c 35.1,0 65.38,20.67 79.32,50.5 z M 17.76,70.06 6.01,65.78 C 2.12,76.46 0,87.98 0,100 c 0,12.02 2.12,23.54 6.01,34.22 l 11.75,-4.28 C 14.36,120.6 12.5,110.51 12.5,100 12.5,89.48 14.36,79.4 17.76,70.06 M 9.35,142.28 C 25.28,176.38 59.88,200 100,200 c 40.12,0 74.72,-23.62 90.65,-57.72 L 179.32,137 C 165.38,166.83 135.1,187.5 100,187.5 64.9,187.5 34.62,166.83 20.68,137 Z M 182.24,70.06 c 3.4,9.34 5.26,19.43 5.26,29.95 0,10.52 -1.86,20.6 -5.26,29.94 l 11.75,4.28 c 3.89,-10.68 6.01,-22.2 6.01,-34.22 0,-12.02 -2.12,-23.55 -6.01,-34.22 z"
   id="path1" />
		<path
   class="st0"
   d="m 82.48,80.02 c -2.48,0 -5.15,0.44 -7.47,0.94 V 60.07 l -10.4,1.13 v 56.08 c 4.3,1.36 9.88,2.65 15.39,2.65 12.52,0 19.91,-4.23 19.91,-19.95 0,-15.73 -7.4,-19.96 -17.43,-19.96 m -1.66,30.99 c -1.89,0 -3.55,-0.23 -5.81,-0.76 V 89.71 c 1.87,-0.43 3.73,-0.77 5.81,-0.77 5.66,0 8.37,2.57 8.37,11.03 0.01,8.47 -2.71,11.04 -8.37,11.04"
   id="path2" />
		<path
   class="st0"
   d="m 122.94,95.4 c -4.45,-0.08 -7.24,-0.15 -7.24,-2.57 0,-3.17 1.89,-3.85 7.62,-3.85 3.47,0 8.37,0.68 11.46,1.43 l -0.83,-8.6 c -3.99,-1.21 -8.44,-1.74 -11.38,-1.74 -12.52,0 -17.34,4.53 -17.34,13.06 0,8.23 5.05,10.34 13.57,10.49 5.5,0.07 8.37,-0.08 8.37,3.55 0,3.17 -2.49,3.85 -7.84,3.85 -5.96,0 -10.18,-0.91 -13.27,-1.89 l 0.83,8.6 c 4,1.43 7.77,2.19 13.27,2.19 13.35,0 17.49,-4.53 17.49,-12.68 -0.01,-10.26 -6.72,-11.69 -14.71,-11.84"
   id="path3" />
		<path
   class="st0"
   d="m 40.48,80.07 c -3.32,0 -7.77,0.53 -11.76,1.74 l -0.83,8.6 c 3.32,-0.75 8.22,-1.43 11.46,-1.43 5.43,0 7.61,0.45 7.61,4.83 v 1.21 l -7.24,0.38 c -7.99,0.45 -14.7,1.81 -14.7,11.85 0,8.15 4.15,12.68 16.66,12.68 5.81,0 11.38,-1.28 15.68,-2.64 V 93.13 c 0,-8.52 -4.74,-13.06 -16.88,-13.06 m 6.48,30.65 c -1.36,0.23 -3.17,0.53 -5.05,0.53 -4.52,0 -6.41,-1.44 -6.41,-4.53 0,-3.24 1.81,-3.77 5.58,-4 l 5.88,-0.38 z"
   id="path4" />
		<path
   class="st0"
   d="m 158.09,80.07 c -3.32,0 -7.77,0.53 -11.76,1.74 l -0.83,8.6 c 3.32,-0.75 8.22,-1.43 11.46,-1.43 5.43,0 7.61,0.45 7.61,4.83 v 1.21 l -7.24,0.38 c -7.99,0.45 -14.7,1.59 -14.7,11.85 0,8.15 4.15,12.68 16.66,12.68 5.81,0 11.38,-1.28 15.68,-2.64 V 93.13 c 0.01,-8.52 -4.74,-13.06 -16.88,-13.06 m 6.48,30.65 c -1.36,0.23 -3.17,0.53 -5.05,0.53 -4.52,0 -6.41,-1.44 -6.41,-4.53 0,-3.24 1.81,-3.77 5.58,-4 l 5.88,-0.38 z"
   id="path5" />
	</g>
</g>
</svg>
