<?xml version="1.0" encoding="UTF-8" standalone="no"?>
<!-- Creator: CorelDRAW -->

<svg
   xml:space="preserve"
   width="500"
   height="500"
   version="1.1"
   style="clip-rule:evenodd;fill-rule:evenodd;image-rendering:optimizeQuality;shape-rendering:geometricPrecision;text-rendering:geometricPrecision"
   viewBox="0 0 4819.921 4819.9208"
   id="svg8"
   sodipodi:docname="Access.svg"
   inkscape:version="1.4 (e7c3feb1, 2024-10-09)"
   xmlns:inkscape="http://www.inkscape.org/namespaces/inkscape"
   xmlns:sodipodi="http://sodipodi.sourceforge.net/DTD/sodipodi-0.dtd"
   xmlns="http://www.w3.org/2000/svg"
   xmlns:svg="http://www.w3.org/2000/svg"><sodipodi:namedview
   id="namedview8"
   pagecolor="#ffffff"
   bordercolor="#000000"
   borderopacity="0.25"
   inkscape:showpageshadow="2"
   inkscape:pageopacity="0.0"
   inkscape:pagecheckerboard="0"
   inkscape:deskcolor="#d1d1d1"
   inkscape:document-units="in"
   inkscape:zoom="0.85624382"
   inkscape:cx="131.38781"
   inkscape:cy="268.61508"
   inkscape:window-width="1472"
   inkscape:window-height="801"
   inkscape:window-x="0"
   inkscape:window-y="34"
   inkscape:window-maximized="1"
   inkscape:current-layer="svg8" />
 <defs
   id="defs1">
  <style
   type="text/css"
   id="style1">
   <![CDATA[
    .fil0 {fill:#0124DD;fill-rule:nonzero}
    .fil1 {fill:#114185;fill-rule:nonzero}
    .fil2 {fill:#FE6309;fill-rule:nonzero}
   ]]>
  </style>
 </defs>
<rect
   width="4868.2168"
   height="4868.2168"
   fill="#ffffff"
   id="rect1"
   x="0"
   y="0"
   style="stroke-width:9.73645" />
 <g
   id="Layer_x0020_1"
   inkscape:label="Layer 1"
   inkscape:groupmode="layer">
  <metadata
   id="CorelCorpID_0Corel-Layer" />
  <g
   id="Access_x0020_bank_x0020_PLC">
   
   
   
   
   
   
   
   
   
   <g
   id="g8"
   transform="matrix(4.3661472,0,0,4.3661472,144.59763,0)"><polygon
     class="fil2"
     points="519.98,1103.74 1038.92,584.8 1038.45,584.33 454.11,0 454.11,89.69 948.76,584.33 948.95,584.52 520.49,1012.98 519.98,1012.46 91.8,584.33 91.42,583.96 301.62,373.76 210.38,373.76 0,584.14 0.19,584.33 519.79,1103.93 "
     id="polygon7" /><polygon
     class="fil2"
     points="453.93,151.42 453.93,241.11 797.34,584.52 520.68,861.18 243.78,584.33 243.4,583.96 453.6,373.76 362.37,373.76 151.98,584.14 152.17,584.33 474.85,907.01 519.98,952.14 565.85,906.31 887.31,584.8 "
     id="polygon8" /><path
     class="fil2"
     d="M 735.84,584.33 564.49,412.79 518.89,367.19 474.05,412.03 301.8,584.14 v 0 l 172.34,172.34 45.13,45.12 45.78,-45.83 171.26,-170.98 -0.47,-0.47 z M 520.06,710.99 393.41,584.33 393.03,583.95 519.35,457.63 646.01,584.28 v 0 l -125.95,126.7 z"
     id="path8" /></g>
  </g>
 </g>
</svg>
