<?xml version="1.0" encoding="UTF-8" standalone="no"?>
<svg
   version="1.1"
   viewBox="-5 -10 500 500"
   id="svg2"
   sodipodi:docname="Bank.svg"
   width="700"
   height="700"
   inkscape:version="1.4 (e7c3feb1, 2024-10-09)"
   xmlns:inkscape="http://www.inkscape.org/namespaces/inkscape"
   xmlns:sodipodi="http://sodipodi.sourceforge.net/DTD/sodipodi-0.dtd"
   xmlns="http://www.w3.org/2000/svg"
   xmlns:svg="http://www.w3.org/2000/svg">
  <defs
     id="defs2" />
  <sodipodi:namedview
     id="namedview2"
     pagecolor="#ffffff"
     bordercolor="#000000"
     borderopacity="0.25"
     inkscape:showpageshadow="2"
     inkscape:pageopacity="0.0"
     inkscape:pagecheckerboard="0"
     inkscape:deskcolor="#d1d1d1"
     inkscape:zoom="0.40901617"
     inkscape:cx="155.25059"
     inkscape:cy="106.35276"
     inkscape:window-width="1472"
     inkscape:window-height="794"
     inkscape:window-x="0"
     inkscape:window-y="34"
     inkscape:window-maximized="1"
     inkscape:current-layer="g1" />
  <g
     id="g1">
    <rect
       width="500"
       height="500"
       fill="white"
       id="rect1" />
    <g
       id="g2"
       transform="matrix(0.71428571,0,0,0.71428571,70,68.571429)">
      <path
         d="m 495,450.92338 v 15.6157 c 0,12.94537 -10.48885,23.43422 -23.43422,23.43422 l -453.126056,0.0213 c -12.945365,0 -23.434217,-10.48885 -23.434217,-23.43422 v -15.6157 c 0,-12.94536 10.488852,-23.43422 23.434217,-23.43422 H 471.54391 c 12.94536,0 23.43422,10.48886 23.43422,23.43422 z M 448.13211,239.91043 v -23.43422 h -93.75983 v 23.43422 c 0,11.55688 6.25886,21.63941 15.6157,27.02274 v 78.82498 c -9.37763,5.38322 -15.6157,15.46586 -15.6157,27.02274 v 23.43422 h 93.75983 v -23.43422 c 0,-11.55688 -6.25886,-21.63941 -15.6157,-27.02274 v -78.82498 c 9.37762,-5.38322 15.6157,-15.46586 15.6157,-27.02274 z m -156.26092,0 v -23.43422 h -93.75984 v 23.43422 c 0,11.55688 6.25886,21.63941 15.6157,27.02274 v 78.82498 c -9.37762,5.38322 -15.6157,15.46586 -15.6157,27.02274 v 23.43422 h 93.75984 v -23.43422 c 0,-11.55688 -6.25886,-21.63941 -15.6157,-27.02274 v -78.82498 c 9.37762,-5.38322 15.6157,-15.46586 15.6157,-27.02274 z m -156.23905,0 V 216.47621 H 41.8723 v 23.43422 c 0,11.55688 6.258859,21.63941 15.615703,27.02274 v 78.82498 C 48.110378,351.14137 41.8723,361.22401 41.8723,372.78089 v 23.43422 h 93.75984 v -23.43422 c 0,-11.55688 -6.25886,-21.63941 -15.61571,-27.02274 v -78.82498 c 9.37763,-5.38322 15.61571,-15.46586 15.61571,-27.02274 z M -4.2884915,174.37425 c -2.0293577,-6.49401 0.3845165,-13.58629 5.9383964,-17.49528 L 236.00848,-7.1802324 c 5.38322,-3.7596906 12.58225,-3.7596906 17.96558,0 L 488.33263,156.87897 c 5.55395,3.90921 7.96781,11.0226 5.9384,17.49528 -2.02936,6.49401 -8.11765,10.93728 -14.93212,10.93728 H 10.638162 c -6.7931449,0 -12.8813821,-4.44327 -14.9321221,-10.93728 z"
         id="path1"
         style="stroke-width:5.46864"
         sodipodi:nodetypes="csccssssccsccsccsccsccssccsccsccsccssccsccsccsccsccccccsscc" />
      <path
         style="font-weight:bold;font-size:106.952px;font-family:Poppins;-inkscape-font-specification:'Poppins Bold';text-align:center;text-anchor:middle;fill:#ffffff;stroke-width:11.1408"
         d="m 155.15702,131.55888 q 6.52407,1.39037 10.48129,6.52407 3.95723,5.02674 3.95723,11.55082 0,9.41177 -6.63103,14.97328 -6.52407,5.45455 -18.28879,5.45455 h -34.9733 V 94.981293 h 33.79683 q 11.44386,0 17.86098,5.240647 6.52408,5.24065 6.52408,14.22462 0,6.63102 -3.52942,11.01605 -3.42246,4.38504 -9.19787,6.09627 z m -27.16581,-6.20322 h 11.97862 q 4.49199,0 6.84493,-1.92513 2.4599,-2.03209 2.4599,-5.88236 0,-3.85028 -2.4599,-5.88236 -2.35294,-2.03209 -6.84493,-2.03209 h -11.97862 z m 13.47595,29.94656 q 4.59894,0 7.05883,-2.03208 2.56685,-2.13904 2.56685,-6.09627 0,-3.95722 -2.6738,-6.20322 -2.56685,-2.24599 -7.16578,-2.24599 h -13.26205 v 16.57756 z m 35.0803,-15.18718 q 0,-9.19787 3.42247,-16.14975 3.52941,-6.95188 9.51872,-10.6952 5.98932,-3.74332 13.36901,-3.74332 6.31016,0 11.01605,2.56684 4.81284,2.56685 7.37969,6.73798 v -8.44921 h 18.28879 V 170.0616 H 221.2534 v -8.44921 q -2.6738,4.17113 -7.48664,6.73798 -4.70589,2.56685 -11.01606,2.56685 -7.27273,0 -13.26205,-3.74332 -5.98931,-3.85028 -9.51872,-10.80216 -3.42247,-7.05883 -3.42247,-16.2567 z m 44.70594,0.10695 q 0,-6.84493 -3.85027,-10.80215 -3.74332,-3.95723 -9.19787,-3.95723 -5.45456,0 -9.30483,3.95723 -3.74332,3.85027 -3.74332,10.6952 0,6.84493 3.74332,10.9091 3.85027,3.95723 9.30483,3.95723 5.45455,0 9.19787,-3.95723 3.85027,-3.95722 3.85027,-10.80215 z m 67.91461,-30.48132 q 10.4813,0 16.68451,6.84493 6.31017,6.73797 6.31017,18.60965 v 34.86635 h -18.18184 v -32.40646 q 0,-5.98931 -3.10161,-9.30482 -3.10161,-3.31551 -8.34225,-3.31551 -5.24065,0 -8.34226,3.31551 -3.10161,3.31551 -3.10161,9.30482 v 32.40646 h -18.28879 v -59.67922 h 18.28879 v 7.91445 q 2.78075,-3.95722 7.48664,-6.20322 4.70589,-2.35294 10.58825,-2.35294 z m 72.19257,60.32093 -18.18184,-25.02677 V 170.0616 H 324.88995 V 90.917117 h 18.28879 v 43.743373 l 18.07489,-24.27811 h 22.56687 l -24.81286,29.94656 25.02676,29.73266 z"
         id="text1"
         aria-label="Bank" />
    </g>
  </g>
</svg>
