<?xml version="1.0" encoding="UTF-8" standalone="no"?>
<svg
   xml:space="preserve"
   version="1.1"
   style="image-rendering:optimizeQuality;shape-rendering:geometricPrecision;text-rendering:geometricPrecision"
   viewBox="0 0 499.99998 500"
   x="0px"
   y="0px"
   fill-rule="evenodd"
   clip-rule="evenodd"
   id="svg2"
   sodipodi:docname="noun-call-center-4758165.svg"
   width="500"
   height="500"
   inkscape:version="1.4 (e7c3feb1, 2024-10-09)"
   xmlns:inkscape="http://www.inkscape.org/namespaces/inkscape"
   xmlns:sodipodi="http://sodipodi.sourceforge.net/DTD/sodipodi-0.dtd"
   xmlns="http://www.w3.org/2000/svg"
   xmlns:svg="http://www.w3.org/2000/svg"><sodipodi:namedview
     id="namedview2"
     pagecolor="#ffffff"
     bordercolor="#000000"
     borderopacity="0.25"
     inkscape:showpageshadow="2"
     inkscape:pageopacity="0.0"
     inkscape:pagecheckerboard="0"
     inkscape:deskcolor="#d1d1d1"
     inkscape:zoom="0.98371739"
     inkscape:cx="127.57729"
     inkscape:cy="293.78356"
     inkscape:window-width="1472"
     inkscape:window-height="801"
     inkscape:window-x="0"
     inkscape:window-y="34"
     inkscape:window-maximized="1"
     inkscape:current-layer="svg2" /><defs
     id="defs1"><style
       type="text/css"
       id="style1">
   
    .fil0 {fill:black}
   
  </style></defs>
<rect width="500" height="500" fill="white"/><g
     id="g1"
     transform="matrix(65.616868,0,0,65.616868,-27.775387,-27.782182)"><path
       class="fil0"
       d="m 4.2885,0.9323 c 0.9695,0 1.7554,0.7859 1.7554,1.7554 0,0.9696 -0.7859,1.7554 -1.7554,1.7554 -0.9696,0 -1.7554,-0.7858 -1.7554,-1.7554 0,-0.9695 0.7858,-1.7554 1.7554,-1.7554 z m 1.1182,3.4864 c -0.1372,0 -0.2485,0.1112 -0.2485,0.2484 0,0.1372 0.1113,0.2485 0.2485,0.2485 0.1346,0 0.2441,-0.107 0.2483,-0.2405 C 5.6741,4.6711 5.6927,4.6635 5.7099,4.652 5.9543,4.489 6.1857,4.2648 6.3569,4.0002 6.4407,3.8704 6.5101,3.7308 6.5597,3.5838 H 6.612 c 0.1233,0 0.2239,-0.1007 0.2239,-0.224 V 2.5696 c 0,-0.1235 -0.1006,-0.224 -0.2239,-0.224 H 6.5272 C 6.4531,1.8574 6.2232,1.4201 5.8896,1.0866 5.4799,0.6769 4.9136,0.4234 4.2885,0.4234 3.6633,0.4234 3.0971,0.6769 2.6873,1.0866 2.3538,1.4201 2.1238,1.8574 2.0498,2.3456 H 1.9649 c -0.1233,0 -0.2238,0.1005 -0.2238,0.224 v 0.7902 c 0,0.1233 0.1005,0.224 0.2238,0.224 H 2.3357 V 2.6625 C 2.3424,2.1333 2.5598,1.6544 2.9075,1.3068 c 0.3532,-0.3533 0.8417,-0.572 1.381,-0.572 0.5392,0 1.0277,0.2187 1.381,0.572 0.3477,0.3476 0.565,0.8265 0.5718,1.3557 V 3.5501 C 6.2026,3.6485 6.1533,3.7431 6.0956,3.8324 5.9486,4.0595 5.7487,4.2529 5.5372,4.394 5.5204,4.4053 5.5065,4.4193 5.4956,4.4351 5.468,4.4245 5.4381,4.4187 5.4067,4.4187 Z M 6.6116,8.0434 H 1.855 C 1.6892,8.0434 1.5383,7.9754 1.429,7.8662 1.3193,7.7564 1.2513,7.6054 1.2513,7.4397 V 6.8346 c 0,-0.5973 0.2444,-1.1405 0.6378,-1.534 C 2.2826,4.9071 2.8259,4.6628 3.4232,4.6628 h 1.511 c 0,0.1286 0.0473,0.2472 0.1384,0.3384 0.0855,0.0855 0.2039,0.1384 0.3341,0.1384 0.1305,0 0.2486,-0.0529 0.3341,-0.1384 0.0502,-0.0503 0.0893,-0.1119 0.113,-0.1809 0.2728,0.1106 0.5186,0.2752 0.7237,0.4803 0.3934,0.3935 0.6378,0.9367 0.6378,1.534 v 0.6051 c 0,0.1657 -0.068,0.3167 -0.1772,0.426 C 6.9283,7.9754 6.7774,8.0434 6.6116,8.0434 Z"
       id="path1"
       sodipodi:nodetypes="ssssssssccccssssccsccsssscccsccccccssscsscsccscccsscs" /></g><g
     id="text2"
     style="font-weight:bold;font-size:75.6387px;font-family:Poppins;-inkscape-font-specification:'Poppins Bold';text-align:center;text-anchor:middle;fill:#ffffff;stroke-width:7.87903"
     aria-label="Call&#10;Center"><path
       d="m 178.95061,368.34973 q 0,-7.86643 3.40374,-13.99316 3.40374,-6.20238 9.45484,-9.60612 6.12673,-3.47938 13.84188,-3.47938 9.45484,0 16.18668,4.99215 6.73185,4.99216 9.00101,13.61497 h -14.22008 q -1.58841,-3.3281 -4.53832,-5.06779 -2.87427,-1.73969 -6.58057,-1.73969 -5.97545,0 -9.68175,4.16013 -3.7063,4.16012 -3.7063,11.11889 0,6.95876 3.7063,11.11888 3.7063,4.16013 9.68175,4.16013 3.7063,0 6.58057,-1.73969 2.94991,-1.73969 4.53832,-5.06779 h 14.22008 q -2.26916,8.62281 -9.00101,13.61497 -6.73184,4.91651 -16.18668,4.91651 -7.71515,0 -13.84188,-3.40374 -6.0511,-3.47938 -9.45484,-9.60611 -3.40374,-6.12674 -3.40374,-13.99316 z m 57.25843,5.44598 q 0,-6.50493 2.42044,-11.42144 2.49608,-4.91652 6.73185,-7.56387 4.23576,-2.64736 9.45483,-2.64736 4.46269,0 7.79079,1.81533 3.40374,1.81533 5.21907,4.76524 v -5.97546 h 12.93422 v 42.2064 h -12.93422 v -5.97546 q -1.89097,2.94991 -5.29471,4.76524 -3.3281,1.81533 -7.79078,1.81533 -5.14344,0 -9.3792,-2.64736 -4.23577,-2.72299 -6.73185,-7.63951 -2.42044,-4.99215 -2.42044,-11.49708 z m 31.61698,0.0756 q 0,-4.84088 -2.72299,-7.63951 -2.64736,-2.79863 -6.50493,-2.79863 -3.85757,0 -6.58057,2.79863 -2.64735,2.72299 -2.64735,7.56387 0,4.84088 2.64735,7.71515 2.723,2.79863 6.58057,2.79863 3.85757,0 6.50493,-2.79863 2.72299,-2.79863 2.72299,-7.63951 z m 35.2477,-34.86944 v 55.97264 H 290.1395 v -55.97264 z m 22.31342,0 v 55.97264 h -12.93422 v -55.97264 z"
       id="path3" /><path
       d="m 123.31846,462.8981 q 0,-7.86642 3.40374,-13.99316 3.40375,-6.20237 9.45484,-9.60611 6.12674,-3.47938 13.84189,-3.47938 9.45483,0 16.18668,4.99215 6.73184,4.99216 9.001,13.61497 h -14.22007 q -1.58842,-3.3281 -4.53833,-5.06779 -2.87427,-1.73969 -6.58056,-1.73969 -5.97546,0 -9.68176,4.16012 -3.70629,4.16013 -3.70629,11.11889 0,6.95876 3.70629,11.11889 3.7063,4.16013 9.68176,4.16013 3.70629,0 6.58056,-1.73969 2.94991,-1.73969 4.53833,-5.06779 h 14.22007 q -2.26916,8.62281 -9.001,13.61496 -6.73185,4.91652 -16.18668,4.91652 -7.71515,0 -13.84189,-3.40374 -6.05109,-3.47938 -9.45484,-9.60612 -3.40374,-6.12673 -3.40374,-13.99316 z m 99.61611,4.84088 q 0,1.81533 -0.22692,3.78194 h -29.27217 q 0.30255,3.93321 2.49607,6.05109 2.26916,2.04225 5.52163,2.04225 4.84088,0 6.73184,-4.08449 h 13.76625 q -1.05894,4.16013 -3.85758,7.48823 -2.72299,3.3281 -6.88312,5.21907 -4.16013,1.89097 -9.30356,1.89097 -6.20237,0 -11.04325,-2.64736 -4.84088,-2.64735 -7.56387,-7.56387 -2.72299,-4.91651 -2.72299,-11.49708 0,-6.58057 2.64735,-11.49708 2.72299,-4.91652 7.56387,-7.56387 4.84088,-2.64736 11.11889,-2.64736 6.12674,0 10.89197,2.57172 4.76524,2.57171 7.4126,7.33695 2.72299,4.76524 2.72299,11.11889 z m -13.23677,-3.40374 q 0,-3.3281 -2.26916,-5.29471 -2.26916,-1.96661 -5.67291,-1.96661 -3.25246,0 -5.52162,1.89097 -2.19352,1.89097 -2.72299,5.37035 z m 45.76136,-17.47254 q 7.41259,0 11.79963,4.84088 4.46269,4.76523 4.46269,13.16113 v 24.65822 H 258.8629 V 466.6044 q 0,-4.23577 -2.19353,-6.58057 -2.19352,-2.3448 -5.89981,-2.3448 -3.7063,0 -5.89982,2.3448 -2.19353,2.3448 -2.19353,6.58057 v 22.91853 H 229.742 v -42.2064 h 12.93421 v 5.59726 q 1.96661,-2.79863 5.29471,-4.38704 3.32811,-1.66405 7.48824,-1.66405 z m 48.78694,31.69261 v 10.96762 h -6.58057 q -7.03439,0 -10.96761,-3.40375 -3.93321,-3.47938 -3.93321,-11.27016 v -16.79179 h -5.14343 v -10.7407 h 5.14343 v -10.28686 h 12.93422 v 10.28686 h 8.47153 v 10.7407 h -8.47153 v 16.94307 q 0,1.89096 0.90766,2.72299 0.90767,0.83202 3.02555,0.83202 z m 46.97164,-10.81633 q 0,1.81533 -0.22691,3.78194 h -29.27218 q 0.30255,3.93321 2.49608,6.05109 2.26916,2.04225 5.52162,2.04225 4.84088,0 6.73185,-4.08449 h 13.76624 q -1.05894,4.16013 -3.85757,7.48823 -2.723,3.3281 -6.88313,5.21907 -4.16012,1.89097 -9.30356,1.89097 -6.20237,0 -11.04325,-2.64736 -4.84087,-2.64735 -7.56387,-7.56387 -2.72299,-4.91651 -2.72299,-11.49708 0,-6.58057 2.64735,-11.49708 2.723,-4.91652 7.56387,-7.56387 4.84088,-2.64736 11.11889,-2.64736 6.12674,0 10.89198,2.57172 4.76523,2.57171 7.41259,7.33695 2.72299,4.76524 2.72299,11.11889 z m -13.23677,-3.40374 q 0,-3.3281 -2.26916,-5.29471 -2.26916,-1.96661 -5.6729,-1.96661 -3.25247,0 -5.52163,1.89097 -2.19352,1.89097 -2.72299,5.37035 z m 32.97842,-9.98431 q 2.26916,-3.47938 5.6729,-5.44599 3.40374,-2.04224 7.56387,-2.04224 v 13.6906 h -3.55502 q -4.84088,0 -7.26131,2.11789 -2.42044,2.04224 -2.42044,7.26131 v 19.59043 h -12.93422 v -42.2064 h 12.93422 z"
       id="path4" /></g></svg>
