<?xml version="1.0" encoding="UTF-8" standalone="no"?>
<svg
   version="1.1"
   viewBox="-5 -10 500 500"
   id="svg2"
   sodipodi:docname="coffin.svg"
   width="700"
   height="700"
   inkscape:version="1.4 (e7c3feb1, 2024-10-09)"
   xmlns:inkscape="http://www.inkscape.org/namespaces/inkscape"
   xmlns:sodipodi="http://sodipodi.sourceforge.net/DTD/sodipodi-0.dtd"
   xmlns="http://www.w3.org/2000/svg"
   xmlns:svg="http://www.w3.org/2000/svg">
  <defs
     id="defs2" />
  <sodipodi:namedview
     id="namedview2"
     pagecolor="#ffffff"
     bordercolor="#000000"
     borderopacity="0.25"
     inkscape:showpageshadow="2"
     inkscape:pageopacity="0.0"
     inkscape:pagecheckerboard="0"
     inkscape:deskcolor="#d1d1d1"
     inkscape:zoom="0.56376726"
     inkscape:cx="62.969247"
     inkscape:cy="288.23951"
     inkscape:window-width="1472"
     inkscape:window-height="794"
     inkscape:window-x="0"
     inkscape:window-y="34"
     inkscape:window-maximized="1"
     inkscape:current-layer="svg2" />
  <rect
     width="500"
     height="500"
     fill="white"
     id="rect1" />
  <path
     d="m 247.6133,417.4467 v 1.12378 h -55.77134 c -9.29812,0 -17.30283,-6.57339 -19.10421,-15.70205 L 130.29447,188.09044 c -0.70814,-3.6022 -0.38487,-7.34304 0.93903,-10.76057 L 171.02851,73.913279 c 2.8941,-7.527865 10.12925,-12.484708 18.18047,-12.484708 h 55.77134 l 0.0154,1.154558 c -5.3726,1.878071 -9.63662,6.018907 -11.69967,11.330035 L 193.50099,177.32975 c -1.3239,3.41749 -1.64717,7.15821 -0.92366,10.76058 l 42.42752,214.76223 v 0.0154 c 1.33927,6.74245 6.12688,12.28451 12.60766,14.5781 z m 148.75248,-229.35531 -13.239,67.01073 -3.54064,17.90342 -25.66183,129.86384 c -1.8011,9.12866 -9.80609,15.70205 -19.1042,15.70205 h -61.22159 c -9.31348,0 -17.3182,-6.57339 -19.11957,-15.70205 L 212.05143,188.10716 v -0.0154 c -0.70814,-3.6022 -0.38487,-7.34304 0.92366,-10.76058 L 252.7701,73.914621 h 0.0154 c 2.89412,-7.527871 10.11389,-12.484707 18.18047,-12.484707 h 66.4866 c 8.05122,0 15.28628,4.956836 18.18047,12.484707 l 39.79501,103.416589 c 1.3239,3.41749 1.64717,7.15822 0.93903,10.76057 z m -56.81962,-0.15394 c 0,-2.58621 -1.0314,-5.06482 -2.84791,-6.88117 -1.83188,-1.83188 -4.31054,-2.86329 -6.89654,-2.84792 h -15.3785 v -16.13317 c 0,-5.38798 -4.35665,-9.74463 -9.74462,-9.74463 -5.3726,0 -9.74461,4.35665 -9.74461,9.74463 v 16.13317 h -15.36313 c -5.3726,0 -9.72924,4.35664 -9.72924,9.72925 0,5.3726 4.35664,9.72924 9.72924,9.74461 h 15.36313 v 57.37528 c 0,5.37261 4.37201,9.72925 9.74461,9.72925 5.38797,0 9.74462,-4.35664 9.74462,-9.72925 v -57.37528 h 15.3785 c 2.5862,0 5.06482,-1.03141 6.89654,-2.84791 1.81651,-1.83188 2.84791,-4.31054 2.84791,-6.89655 z"
     id="path1"
     style="stroke-width:3.94088" />
</svg>
