<?xml version="1.0" encoding="UTF-8" standalone="no"?>
<svg
   version="1.1"
   viewBox="-5 -10 500 500"
   id="svg2"
   sodipodi:docname="coffin.svg"
   width="500"
   height="500"
   inkscape:version="1.4 (e7c3feb1, 2024-10-09)"
   xmlns:inkscape="http://www.inkscape.org/namespaces/inkscape"
   xmlns:sodipodi="http://sodipodi.sourceforge.net/DTD/sodipodi-0.dtd"
   xmlns="http://www.w3.org/2000/svg"
   xmlns:svg="http://www.w3.org/2000/svg">
  <defs
     id="defs2" />
  <sodipodi:namedview
     id="namedview2"
     pagecolor="#ffffff"
     bordercolor="#000000"
     borderopacity="0.25"
     inkscape:showpageshadow="2"
     inkscape:pageopacity="0.0"
     inkscape:pagecheckerboard="0"
     inkscape:deskcolor="#d1d1d1"
     inkscape:zoom="0.77670576"
     inkscape:cx="98.492897"
     inkscape:cy="281.96006"
     inkscape:window-width="1472"
     inkscape:window-height="801"
     inkscape:window-x="0"
     inkscape:window-y="34"
     inkscape:window-maximized="1"
     inkscape:current-layer="svg2" />
  <rect width="500" height="500" fill="white"/>
<path
     d="m 223.25862,488.42538 v 1.5733 h -78.07987 c -13.01737,0 -24.22397,-9.20275 -26.7459,-21.98287 L 59.012254,167.32662 c -0.991392,-5.04308 -0.538813,-10.28026 1.314646,-15.0648 L 116.03992,7.47859 C 120.09166,-3.06042 130.22086,-10 141.49257,-10 h 78.07988 l 0.0215,1.61638 c -7.52163,2.6293 -13.49127,8.42647 -16.37954,15.86205 l -55.71302,144.78322 c -1.85346,4.78449 -2.30604,10.0215 -1.29313,15.06481 l 59.39853,300.66712 v 0.0215 c 1.87498,9.43943 8.57764,17.19831 17.65073,20.40934 z m 208.25348,-321.09743 -18.5346,93.81502 -4.9569,25.06479 -35.92656,181.80938 C 369.5725,480.79726 358.36551,490 345.34815,490 h -85.71022 c -13.03887,0 -24.24548,-9.20274 -26.7674,-21.98286 L 173.472,167.35002 v -0.0215 c -0.99139,-5.04308 -0.53881,-10.28026 1.29313,-15.06481 L 230.47814,7.48047 h 0.0215 c 4.05177,-10.53902 14.15945,-17.47859 25.45267,-17.47859 h 93.08124 c 11.2717,0 21.40079,6.93957 25.45265,17.47859 l 55.71302,144.78322 c 1.85345,4.78449 2.30603,10.02151 1.31464,15.06481 z m -79.54747,-0.21552 c 0,-3.62069 -1.44397,-7.09075 -3.98708,-9.63364 -2.56463,-2.56463 -6.03475,-4.0086 -9.65516,-3.98709 h -21.5299 v -22.58644 c 0,-7.54317 -6.0993,-13.64247 -13.64246,-13.64247 -7.52164,0 -13.64246,6.0993 -13.64246,13.64247 v 22.58644 h -21.50838 c -7.52164,0 -13.62094,6.0993 -13.62094,13.62095 0,7.52164 6.0993,13.62094 13.62094,13.64246 h 21.50838 v 80.32539 c 0,7.52165 6.12082,13.62095 13.64246,13.62095 7.54316,0 13.64246,-6.0993 13.64246,-13.62095 v -80.32539 h 21.5299 c 3.62069,0 7.09075,-1.44397 9.65516,-3.98708 2.54311,-2.56463 3.98708,-6.03475 3.98708,-9.65516 z"
     id="path1"
     style="stroke-width:5.51723" />
</svg>
