<?xml version="1.0" encoding="UTF-8" standalone="no"?>
<svg
   width="700"
   height="700"
   viewBox="0 0 375 375"
   version="1.1"
   id="svg3"
   sodipodi:docname="discovery.svg"
   inkscape:version="1.4 (e7c3feb1, 2024-10-09)"
   xmlns:inkscape="http://www.inkscape.org/namespaces/inkscape"
   xmlns:sodipodi="http://sodipodi.sourceforge.net/DTD/sodipodi-0.dtd"
   xmlns="http://www.w3.org/2000/svg"
   xmlns:svg="http://www.w3.org/2000/svg">
  <defs
     id="defs3" />
  <sodipodi:namedview
     id="namedview3"
     pagecolor="#ffffff"
     bordercolor="#000000"
     borderopacity="0.25"
     inkscape:showpageshadow="2"
     inkscape:pageopacity="0.0"
     inkscape:pagecheckerboard="0"
     inkscape:deskcolor="#d1d1d1"
     inkscape:document-units="pt"
     inkscape:zoom="0.43529071"
     inkscape:cx="118.31174"
     inkscape:cy="419.26004"
     inkscape:window-width="1472"
     inkscape:window-height="794"
     inkscape:window-x="0"
     inkscape:window-y="34"
     inkscape:window-maximized="1"
     inkscape:current-layer="svg3" />
  <rect
     width="378.16025"
     height="378.16025"
     fill="#ffffff"
     id="rect1"
     x="0"
     y="0"
     style="stroke-width:0.75632" />
  <g
     id="surface1">
    <path
       style="fill:#28282b;fill-opacity:1;fill-rule:nonzero;stroke:none;stroke-width:10.1023"
       d="m 127.77491,103.39213 c -9.39153,9.11541 -18.54648,18.54651 -27.46448,28.29319 28.72734,31.48968 58.48064,61.87456 88.86529,91.78575 30.50314,-29.91119 60.2565,-60.37493 88.98407,-91.82514 -8.83929,-9.62824 -17.91533,-18.94104 -27.30687,-27.97747 -20.71697,19.61163 -41.19692,39.46048 -61.40072,59.58556 -20.36186,-20.20387 -40.92092,-40.13142 -61.67729,-59.86189 z m 28.25392,-25.412676 c 11.32529,9.391666 22.37425,19.059503 33.26541,29.003536 10.81234,-9.904578 21.8218,-19.532951 33.10755,-28.84568 -10.7729,-9.115418 -21.78213,-17.757323 -33.22607,-25.886206 -11.44354,7.892115 -22.41355,16.731337 -33.14689,25.72835 z M 75.805335,159.58407 c -7.024009,8.83938 -13.890171,17.91518 -20.361722,27.18853 36.974659,51.45665 82.157127,96.4024 133.771747,133.02184 51.41717,-36.61944 96.44185,-81.60476 133.14035,-133.10085 -6.31378,-9.19434 -12.94307,-18.15192 -19.84878,-26.95163 -34.21248,42.42029 -72.05519,81.72325 -113.09422,117.47449 C 148.2158,241.34663 110.21522,202.00438 75.805335,159.58407 Z m -51.77244,26.9517 c 0,-89.338956 74.896385,-165.932152 164.235465,-165.971604 89.33889,-0.03945 164.4326,76.553708 164.35371,165.971604 -0.0794,89.45742 -74.85691,165.81374 -164.35371,165.77452 C 98.771447,352.27058 24.111848,275.875 24.032895,186.53577 Z m -22.5320274,0 C 1.6981688,149.52178 12.826084,113.33618 33.46401,82.635832 54.101948,51.935408 83.342329,28.061707 117.51533,14.013688 151.68824,-0.03430682 189.25483,-3.6252296 225.44015,3.7144636 c 36.18533,7.3396794 69.37199,25.2942914 95.41611,51.5356474 26.04402,26.280809 43.76181,59.703959 50.86475,96.047369 7.14239,36.34321 3.39373,73.98861 -10.81221,108.20105 -14.16641,34.21258 -38.1192,63.4134 -68.81956,83.97245 C 261.3494,364.02985 225.24295,375 188.34726,375 163.72389,374.92113 139.37635,369.98848 116.64718,360.47836 93.957247,350.96856 73.319302,337.07822 55.956612,319.55774 38.633361,302.03714 24.8616,281.28079 15.548863,258.43305 6.19669,235.58528 1.4219459,211.12005 1.5008676,186.41749 Z m 12.6668634,-0.11824 c 0.197324,34.52806 10.575467,68.22732 29.792838,96.83643 19.256832,28.60906 46.524133,50.86493 78.368911,63.96599 31.84496,13.06115 66.80686,16.41524 100.54549,9.54933 33.69993,-6.82675 64.67641,-23.558 88.94494,-48.02369 24.22854,-24.46569 40.76254,-55.6001 47.3921,-89.45744 6.6293,-33.85729 3.15688,-68.97715 -10.06259,-100.822 C 335.92987,86.581892 313.6347,59.354005 284.98632,40.176129 256.37732,21.037683 222.75689,10.817391 188.34726,10.817391 142.02032,10.935759 97.666538,29.482297 64.993091,62.431975 32.359119,95.381618 14.088821,139.97229 14.167731,186.41749"
       id="path1" />
  </g>
</svg>
