<?xml version="1.0" encoding="UTF-8" standalone="no"?>
<!-- Generator: Adobe Illustrator 24.3.0, SVG Export Plug-In . SVG Version: 6.00 Build 0)  -->

<svg
   version="1.0"
   id="katman_1"
   x="0px"
   y="0px"
   viewBox="0 0 499.99999 499.99998"
   xml:space="preserve"
   sodipodi:docname="fnb.svg"
   width="700"
   height="700"
   inkscape:version="1.4 (e7c3feb1, 2024-10-09)"
   xmlns:inkscape="http://www.inkscape.org/namespaces/inkscape"
   xmlns:sodipodi="http://sodipodi.sourceforge.net/DTD/sodipodi-0.dtd"
   xmlns="http://www.w3.org/2000/svg"
   xmlns:svg="http://www.w3.org/2000/svg"><defs
   id="defs1" /><sodipodi:namedview
   id="namedview1"
   pagecolor="#ffffff"
   bordercolor="#000000"
   borderopacity="0.25"
   inkscape:showpageshadow="2"
   inkscape:pageopacity="0.0"
   inkscape:pagecheckerboard="0"
   inkscape:deskcolor="#d1d1d1"
   inkscape:zoom="0.22425608"
   inkscape:cx="64.658226"
   inkscape:cy="419.16367"
   inkscape:window-width="1472"
   inkscape:window-height="801"
   inkscape:window-x="0"
   inkscape:window-y="34"
   inkscape:window-maximized="1"
   inkscape:current-layer="katman_1" />
<style
   type="text/css"
   id="style1">
	.st0{fill:#00AAAC;}
	.st1{fill:#F59C23;}
	.st2{fill:#FFFFFF;}
	.st3{fill:#010202;}
</style>
<rect width="500" height="500" fill="white"/>
<g
   id="Page-1"
   transform="matrix(1.0872638,0,0,1.0872638,-208.18927,-73.248962)">
	<g
   id="header-logo_lrg">
		<g
   id="icons_x2F_reserved_x2F_payments">
			<path
   id="Fill-1"
   class="st0"
   d="m 651.35,297.31 c 0,126.99 -102.94,229.93 -229.93,229.93 -126.99,0 -229.94,-102.95 -229.94,-229.93 0,-126.98 102.95,-229.94 229.93,-229.94 126.98,0 229.94,102.95 229.94,229.94" />
			<path
   id="Fill-3"
   class="st1"
   d="m 587.6,297.31 c 0,91.78 -74.41,166.19 -166.19,166.19 -91.78,0 -166.19,-74.41 -166.19,-166.19 0,-91.78 74.41,-166.19 166.19,-166.19 91.78,0 166.19,74.4 166.19,166.19" />
			<path
   id="Fill-5"
   class="st2"
   d="m 421.41,456.67 c -88.01,0 -159.36,-71.35 -159.36,-159.36 0,-88.01 71.35,-159.36 159.36,-159.36 88.01,0 159.36,71.35 159.36,159.36 0,88.01 -71.34,159.36 -159.36,159.36 m 0,-334.66 c -96.81,0 -175.29,78.48 -175.29,175.29 0,96.81 78.48,175.3 175.29,175.3 96.81,0 175.29,-78.48 175.29,-175.29 0,-96.81 -78.47,-175.3 -175.29,-175.3" />
			<path
   id="Fill-9"
   class="st3"
   d="m 444.02,304.33 c -9.96,11.77 -17.82,25.65 -22.61,40.79 -4.79,-15.14 -12.65,-29.01 -22.61,-40.79 v 0 c -0.05,-0.06 -0.11,-0.13 -0.16,-0.19 h 22.77 22.77 c -0.05,0.06 -0.11,0.12 -0.16,0.19 z m -22.6,-24.48 c -11.92,0 -23.92,0.3 -35.9,0.89 -5.23,-6.94 -11.54,-13.01 -18.68,-17.93 18.02,-1.28 36.22,-1.93 54.58,-1.93 36.34,0 72.07,2.55 107,7.47 l 1.97,-18.71 c -35.18,-7.06 -71.62,-10.77 -108.96,-10.77 -37.34,0 -73.79,3.71 -108.96,10.77 l 1.97,18.71 c 8.72,-1.23 17.49,-2.31 26.31,-3.24 1.57,-0.18 2.83,0.24 3.53,0.55 8.23,3.61 15.35,9.28 20.75,16.37 -22.4,1.72 -44.64,4.44 -66.29,8.14 l 2.04,19.39 c 17.36,-1.51 38.6,-3.1 43.08,-3.19 25.45,-0.5 46.57,16.96 52.66,41.74 4.21,17.7 1.98,40.56 1.39,51.64 h 23.53 23.53 c -0.59,-11.08 -2.82,-33.95 1.39,-51.64 6.09,-24.77 27.22,-42.24 52.66,-41.74 4.48,0.09 25.72,1.69 43.08,3.19 l 2.04,-19.39 c -39.84,-6.8 -81.67,-10.31 -122.72,-10.32 z m 0,-75.88 c -26.39,0 -52.12,2.78 -76.94,8.06 l 1.81,17.21 c 24.51,-3.65 49.6,-5.54 75.13,-5.54 25.53,0 50.61,1.89 75.13,5.54 l 1.81,-17.21 c -24.82,-5.28 -50.56,-8.06 -76.94,-8.06" />
		</g>
	</g>
</g>
</svg>
