<?xml version="1.0" encoding="UTF-8" standalone="no"?>
<svg
   version="1.1"
   viewBox="-5 -10 500 500"
   id="svg2"
   sodipodi:docname="investor.svg"
   width="700"
   height="700"
   inkscape:version="1.4 (e7c3feb1, 2024-10-09)"
   xmlns:inkscape="http://www.inkscape.org/namespaces/inkscape"
   xmlns:sodipodi="http://sodipodi.sourceforge.net/DTD/sodipodi-0.dtd"
   xmlns="http://www.w3.org/2000/svg"
   xmlns:svg="http://www.w3.org/2000/svg">
  <defs
     id="defs2" />
  <sodipodi:namedview
     id="namedview2"
     pagecolor="#ffffff"
     bordercolor="#000000"
     borderopacity="0.25"
     inkscape:showpageshadow="2"
     inkscape:pageopacity="0.0"
     inkscape:pagecheckerboard="0"
     inkscape:deskcolor="#d1d1d1"
     inkscape:zoom="0.66034527"
     inkscape:cx="544.41217"
     inkscape:cy="224.88236"
     inkscape:window-width="1472"
     inkscape:window-height="794"
     inkscape:window-x="0"
     inkscape:window-y="34"
     inkscape:window-maximized="1"
     inkscape:current-layer="svg2" />
  <rect
     width="500"
     height="500"
     fill="white"
     id="rect1" />
  <path
     d="m 75.229614,375.57202 c 66.151926,29.74701 132.303836,37.14468 198.471866,22.17649 -5.14654,-4.26534 -9.58514,-9.538 -13.00071,-16.02264 -10.41919,-19.73679 -7.52338,-43.66075 0.62957,-63.61753 8.08988,-19.80005 21.89323,-37.7269 38.63951,-51.23167 -24.82086,-21.56284 -57.22716,-34.62641 -92.68843,-34.62641 -73.6906,0 -134.209656,56.36088 -140.785363,128.33906 -0.5981,6.46894 2.817322,12.32381 8.735372,14.98391 z M 326.03314,219.72136 c 4.64288,0.42496 4.6586,-8.79822 17.72217,-10.01022 13.07929,1.1962 13.095,10.41919 17.72217,10.01022 7.96418,-0.72401 27.27588,-9.34902 19.76821,11.14324 -0.88139,2.42383 -4.56431,8.01132 -8.48354,12.48135 -2.172,-1.21191 -4.6586,-1.8887 -7.30298,-1.8887 l -43.40691,-0.0157 c -2.64419,0 -5.13082,0.69254 -7.3187,1.8887 -3.93479,-4.47003 -7.60195,-10.05737 -8.48354,-12.48135 -7.50767,-20.47655 11.82015,-11.85158 19.78433,-11.12753 z m -12.49707,49.45076 c 2.42383,1.65262 5.36694,2.62842 8.51498,2.62842 h 1.086 c -3.8561,4.51718 -5.65019,9.88411 -5.39837,16.06979 0.11017,2.73863 2.40812,4.87899 5.14654,4.76899 2.73863,-0.11015 4.86328,-2.4081 4.769,-5.14653 -0.15738,-4.1078 1.21191,-7.58624 4.13923,-10.40347 2.0933,-2.01462 4.94225,-3.77741 8.56212,-5.27266 h 9.45942 c 2.61271,1.65263 4.70614,3.49411 6.29567,5.52448 2.36089,3.00617 3.62003,6.51608 3.76165,10.51388 0.0787,2.73862 2.37661,4.8947 5.11511,4.80042 2.73863,-0.0787 4.89471,-2.3766 4.80043,-5.11511 -0.2046,-5.91813 -1.99886,-11.15895 -5.38265,-15.72326 h 1.05453 c 3.14784,0 6.07527,-0.97585 8.51497,-2.62843 59.35059,40.74761 75.64073,131.9412 -8.51497,134.11296 -13.03215,0.33051 -30.42392,0.33051 -43.45526,0 -84.09408,-2.21923 -67.8039,-93.39758 -8.46783,-134.12908 z m 67.05044,67.96104 c 0,-20.33513 -16.49486,-36.82959 -36.82959,-36.82959 -20.33472,0 -36.81387,16.47875 -36.81387,36.82959 0,20.33512 16.47875,36.82959 36.81387,36.82959 20.33513,0 36.82959,-16.47875 36.82959,-36.82959 z m -41.80327,-26.00104 v 4.26535 c -2.29792,0.66104 -4.42289,1.85723 -6.16956,3.65149 -1.22767,1.25914 -2.23498,2.80156 -2.94323,4.67471 -1.24338,3.22653 -1.16469,6.53179 0.26757,9.538 1.25914,2.67565 3.55705,4.9894 6.8779,6.6575 2.31367,1.16469 4.84758,1.82573 7.33441,2.47105 1.52672,0.39349 3.03768,0.78695 4.29677,1.30635 l 0.20461,0.0787 c 1.14898,0.4879 1.65263,1.07024 1.66834,1.57389 0.0157,0.45644 -0.18885,0.99156 -0.56659,1.54244 -0.50365,0.724 -1.2906,1.38504 -2.29791,1.87294 -1.0073,0.4879 -2.2035,0.78695 -3.55704,0.78695 h -0.15739 c -2.42382,-0.0314 -5.31979,-0.97584 -8.46782,-3.33669 -2.18776,-1.63687 -5.30408,-1.1962 -6.94116,0.99156 -1.63708,2.18775 -1.1962,5.30408 0.99155,6.94115 3.258,2.43958 6.45322,3.93479 9.49086,4.70614 v 4.24964 c 0,2.75433 2.23497,4.97368 4.97367,4.97368 2.75435,0 4.97369,-2.23497 4.97369,-4.97368 v -4.24964 c 1.07024,-0.29905 2.09331,-0.67678 3.03768,-1.14897 2.56549,-1.24338 4.65859,-3.08486 6.1067,-5.17837 1.5739,-2.28219 2.40811,-4.89471 2.31366,-7.49195 -0.14166,-4.23391 -2.50251,-8.20029 -7.7752,-10.4349 -0.0944,-0.0472 -0.18885,-0.0944 -0.2833,-0.12591 -1.69985,-0.69255 -3.60427,-1.18045 -5.54019,-1.6841 -1.95168,-0.51941 -3.95054,-1.02307 -5.35122,-1.73133 -1.24338,-0.62956 -2.03037,-1.33782 -2.36089,-2.03037 -0.23607,-0.5194 -0.23607,-1.11746 0.0157,-1.76278 0.2046,-0.51941 0.47218,-0.94433 0.8027,-1.2906 0.70825,-0.72402 1.76279,-1.11747 2.94323,-1.24339 0.23607,-0.0314 0.47219,-0.0314 0.70826,-0.0472 0.12591,0.0157 0.25183,0.0157 0.37774,0.0157 h 0.23607 c 1.086,0.0472 2.172,0.29905 3.19506,0.67679 v -0.0157 l 0.0157,0.0157 c 1.07024,0.40921 2.01461,0.97584 2.72287,1.66835 1.96739,1.92017 5.11511,1.87294 7.01973,-0.0944 1.90445,-1.9674 1.87295,-5.11511 -0.0944,-7.01972 -1.65263,-1.60541 -3.76165,-2.89602 -6.07528,-3.79316 v -0.0157 c -0.66103,-0.25183 -1.35357,-0.47218 -2.04608,-0.66103 v -4.3282 c 0,-2.75435 -2.23497,-4.97369 -4.97368,-4.97369 -2.75434,0 -4.97369,2.23497 -4.97369,4.97369 z m -16.73058,-49.2936 h 43.40691 c 2.86454,0 5.2255,-2.34514 5.2255,-5.22552 0,-2.88038 -2.34512,-5.22551 -5.2255,-5.22551 l -43.40691,0.0157 c -2.86454,0 -5.22551,2.34513 -5.22551,5.22551 0.0157,2.86454 2.36089,5.2098 5.22551,5.2098 z M 207.26792,92.578571 c 35.11395,0 63.56918,28.456449 63.56918,63.569179 0,35.11394 -28.47216,63.56918 -63.56918,63.56918 -35.11394,0 -63.56918,-28.45644 -63.56918,-63.56918 0,-35.11394 28.47216,-63.569179 63.56918,-63.569179 z"
     fill-rule="evenodd"
     id="path1"
     style="stroke-width:4.02923" />
</svg>
