<?xml version="1.0" encoding="UTF-8" standalone="no"?>
<svg
   version="1.1"
   viewBox="-5 -10 500 500"
   id="svg2"
   sodipodi:docname="noun-investor-7799541.svg"
   width="500"
   height="500"
   inkscape:version="1.4 (e7c3feb1, 2024-10-09)"
   xmlns:inkscape="http://www.inkscape.org/namespaces/inkscape"
   xmlns:sodipodi="http://sodipodi.sourceforge.net/DTD/sodipodi-0.dtd"
   xmlns="http://www.w3.org/2000/svg"
   xmlns:svg="http://www.w3.org/2000/svg">
  <defs
     id="defs2" />
  <sodipodi:namedview
     id="namedview2"
     pagecolor="#ffffff"
     bordercolor="#000000"
     borderopacity="0.25"
     inkscape:showpageshadow="2"
     inkscape:pageopacity="0.0"
     inkscape:pagecheckerboard="0"
     inkscape:deskcolor="#d1d1d1"
     inkscape:zoom="0.66034527"
     inkscape:cx="544.41217"
     inkscape:cy="225.63953"
     inkscape:window-width="1472"
     inkscape:window-height="801"
     inkscape:window-x="0"
     inkscape:window-y="34"
     inkscape:window-maximized="1"
     inkscape:current-layer="svg2" />
  <path
     d="M 7.3214601,417.34083 C 99.93415,458.98664 192.54683,469.34337 285.18207,448.38791 c -7.20515,-5.97148 -13.41919,-13.3532 -18.201,-22.4317 -14.58686,-27.6315 -10.53273,-61.12505 0.8814,-89.06454 11.32584,-27.72006 30.65052,-52.81766 54.09532,-71.72434 -34.74921,-30.18797 -80.11803,-48.47697 -129.7638,-48.47697 -103.16685,0 -187.8935199,78.90524 -197.0995099,179.67469 -0.83734,9.05651 3.94424995,17.25333 12.22952,20.97747 z M 358.44639,199.14991 c 6.50004,0.59494 6.52204,-12.31752 24.81104,-14.01431 18.311,1.67467 18.333,14.58686 24.81104,14.01431 11.14985,-1.01362 38.18623,-13.08864 27.67549,15.60053 -1.23395,3.39336 -6.39003,11.21585 -11.87696,17.47389 -3.0408,-1.69667 -6.52204,-2.64418 -10.22417,-2.64418 l -60.76967,-0.022 c -3.70186,0 -7.18315,0.96956 -10.24618,2.64418 -5.5087,-6.25804 -10.64273,-14.08031 -11.87696,-17.47389 -10.51073,-28.66717 16.54821,-16.59221 27.69806,-15.57853 z m -17.49589,69.23105 c 3.39336,2.31368 7.51371,3.6798 11.92096,3.6798 h 1.5204 c -5.39853,6.32404 -7.91026,13.83775 -7.55771,22.4977 0.15423,3.83408 3.37136,6.83059 7.20516,6.67659 3.83407,-0.15422 6.80859,-3.37135 6.67659,-7.20515 -0.22033,-5.75092 1.69668,-10.62073 5.79492,-14.56486 2.93063,-2.82046 6.91916,-5.28837 11.98697,-7.38172 h 13.24319 c 3.6578,2.31369 6.5886,4.89176 8.81394,7.73427 3.30525,4.20864 5.06804,9.12251 5.26631,14.71943 0.11017,3.83408 3.32725,6.85259 7.16116,6.7206 3.83408,-0.11017 6.85259,-3.32725 6.72059,-7.16116 -0.28644,-8.28538 -2.7984,-15.62253 -7.53571,-22.01257 h 1.47635 c 4.40697,0 8.50538,-1.36618 11.92096,-3.6798 83.09082,57.04666 105.89702,184.71768 -11.92096,187.75814 -18.24501,0.46272 -42.59349,0.46272 -60.83736,0 -117.73172,-3.10691 -94.92547,-130.75661 -11.85497,-187.78071 z m 93.87061,95.14546 c 0,-28.46918 -23.09281,-51.56143 -51.56143,-51.56143 -28.46861,0 -51.53942,23.07025 -51.53942,51.56143 0,28.46917 23.07025,51.56142 51.53942,51.56142 28.46918,0 51.56143,-23.07025 51.56143,-51.56142 z m -58.52458,-36.40145 v 5.97149 c -3.21708,0.92545 -6.19204,2.60012 -8.63738,5.11208 -1.71874,1.76279 -3.12897,3.92219 -4.12053,6.5446 -1.74073,4.51714 -1.63056,9.1445 0.37461,13.3532 1.76279,3.74591 4.97987,6.98515 9.62906,9.32049 3.23913,1.63057 6.7866,2.55602 10.26817,3.45947 2.13741,0.55089 4.25275,1.10173 6.01548,1.8289 l 0.28645,0.11017 c 1.60857,0.68306 2.31368,1.49834 2.33568,2.20345 0.022,0.63901 -0.26439,1.38818 -0.79323,2.15941 -0.70511,1.01361 -1.80684,1.93906 -3.21707,2.62212 -1.41023,0.68306 -3.08491,1.10173 -4.97986,1.10173 h -0.22034 c -3.39335,-0.044 -7.44771,-1.36617 -11.85496,-4.67136 -3.06286,-2.29162 -7.42571,-1.67468 -9.71762,1.38818 -2.29191,3.06285 -1.67468,7.42571 1.38817,9.71761 4.5612,3.41541 9.03451,5.50871 13.2872,6.5886 v 5.94949 c 0,3.85607 3.12896,6.96315 6.96315,6.96315 3.85608,0 6.96316,-3.12896 6.96316,-6.96315 v -5.94949 c 1.49834,-0.41867 2.93063,-0.9475 4.25275,-1.60856 3.59169,-1.74073 6.52203,-4.31881 8.54938,-7.24972 2.20346,-3.19507 3.37136,-6.85259 3.23913,-10.48873 -0.19833,-5.92748 -3.50352,-11.48041 -10.88529,-14.60886 -0.13222,-0.0661 -0.26439,-0.13223 -0.39661,-0.17628 -2.37979,-0.96956 -5.04598,-1.65262 -7.75627,-2.35774 -2.73235,-0.72717 -5.53076,-1.43229 -7.49171,-2.42385 -1.74073,-0.88139 -2.84252,-1.87295 -3.30524,-2.84252 -0.3305,-0.72717 -0.3305,-1.56445 0.022,-2.4679 0.28644,-0.72717 0.66106,-1.32206 1.12378,-1.80684 0.99156,-1.01362 2.46791,-1.56446 4.12053,-1.74074 0.3305,-0.044 0.66106,-0.044 0.99156,-0.0661 0.17628,0.022 0.35256,0.022 0.52883,0.022 h 0.33051 c 1.52039,0.0661 3.04079,0.41867 4.47308,0.94751 v -0.022 l 0.022,0.022 c 1.49834,0.57289 2.82046,1.36617 3.81202,2.33568 2.75435,2.68824 7.16116,2.62212 9.82762,-0.13223 2.66624,-2.75435 2.62213,-7.16115 -0.13222,-9.82761 -2.31368,-2.24757 -5.26631,-4.05442 -8.50539,-5.31042 v -0.022 c -0.92545,-0.35256 -1.89501,-0.66106 -2.86452,-0.92545 v -6.05948 c 0,-3.85608 -3.12896,-6.96316 -6.96315,-6.96316 -3.85608,0 -6.96316,3.12896 -6.96316,6.96316 z m -23.42281,-69.01105 h 60.76967 c 4.01036,0 7.31571,-3.28319 7.31571,-7.31572 0,-4.03253 -3.28318,-7.31571 -7.31571,-7.31571 l -60.76967,0.022 c -4.01036,0 -7.31571,3.28318 -7.31571,7.31571 0.022,4.01036 3.30524,7.29372 7.31571,7.29372 z M 192.17509,21.15 c 49.15952,0 88.99685,39.839022 88.99685,88.99685 0,49.15952 -39.86102,88.99685 -88.99685,88.99685 -49.15952,0 -88.99685,-39.83902 -88.99685,-88.99685 0,-49.15952 39.86102,-88.99685 88.99685,-88.99685 z"
     fill-rule="evenodd"
     id="path1"
     style="stroke-width:5.64092" />
</svg>
