<?xml version="1.0" encoding="UTF-8" standalone="no"?>
<svg
   width="500"
   height="500"
   viewBox="0 0 500 499.99999"
   xml:space="preserve"
   version="1.1"
   id="svg2"
   sodipodi:docname="Investec.svg"
   inkscape:version="1.4 (e7c3feb1, 2024-10-09)"
   xmlns:inkscape="http://www.inkscape.org/namespaces/inkscape"
   xmlns:sodipodi="http://sodipodi.sourceforge.net/DTD/sodipodi-0.dtd"
   xmlns="http://www.w3.org/2000/svg"
   xmlns:svg="http://www.w3.org/2000/svg"><defs
   id="defs2" /><sodipodi:namedview
   id="namedview2"
   pagecolor="#ffffff"
   bordercolor="#000000"
   borderopacity="0.25"
   inkscape:showpageshadow="2"
   inkscape:pageopacity="0.0"
   inkscape:pagecheckerboard="0"
   inkscape:deskcolor="#d1d1d1"
   inkscape:zoom="0.84874083"
   inkscape:cx="448.31118"
   inkscape:cy="169.6631"
   inkscape:window-width="1472"
   inkscape:window-height="801"
   inkscape:window-x="0"
   inkscape:window-y="34"
   inkscape:window-maximized="1"
   inkscape:current-layer="g2" />
<style
   type="text/css"
   id="style1">
	.st0{fill:#0B1742;}
	.st1{fill:#5E9AD3;}
</style>
<g
   id="g2">
	
	<path
   class="st1"
   d="M 261.21795,239.55128 V 20 H 241.98718 V 68.076923 C 147.4359,71.282051 68.910256,132.17949 49.679487,210.70513 H 100.96154 C 118.58974,146.60256 174.67949,98.525641 241.98718,95.320513 V 241.15385 H 0 v 19.23077 h 43.269231 c 6.410256,92.94871 91.346149,168.26923 197.115389,173.07692 v 46.47436 h 19.23076 V 260.38462 h 145.83334 c -4.80769,68.91025 -52.88462,125 -118.58975,141.02564 v 28.84615 c 92.94872,-14.42308 163.46154,-84.9359 169.8718,-169.87179 H 500 v -20.83334 z m -19.23077,165.0641 C 163.46154,399.80769 100.96154,337.30769 96.153846,258.78205 H 241.98718 Z M 402.24359,210.70513 h 51.28205 C 435.89744,138.58974 371.79487,84.102564 290.0641,69.679487 v 28.846154 c 54.48718,14.423079 97.75641,57.692309 112.17949,112.179489"
   id="path2"
   style="stroke-width:16.0256" />
</g>
</svg>
