<?xml version="1.0" encoding="UTF-8" standalone="no"?>
<svg
   width="700"
   height="700"
   viewBox="0 0 500 499.99999"
   xml:space="preserve"
   version="1.1"
   id="svg2"
   sodipodi:docname="Investec.svg"
   inkscape:version="1.4 (e7c3feb1, 2024-10-09)"
   xmlns:inkscape="http://www.inkscape.org/namespaces/inkscape"
   xmlns:sodipodi="http://sodipodi.sourceforge.net/DTD/sodipodi-0.dtd"
   xmlns="http://www.w3.org/2000/svg"
   xmlns:svg="http://www.w3.org/2000/svg"><defs
   id="defs2" /><sodipodi:namedview
   id="namedview2"
   pagecolor="#ffffff"
   bordercolor="#000000"
   borderopacity="0.25"
   inkscape:showpageshadow="2"
   inkscape:pageopacity="0.0"
   inkscape:pagecheckerboard="0"
   inkscape:deskcolor="#d1d1d1"
   inkscape:zoom="0.84874083"
   inkscape:cx="448.31118"
   inkscape:cy="170.25221"
   inkscape:window-width="1472"
   inkscape:window-height="794"
   inkscape:window-x="0"
   inkscape:window-y="34"
   inkscape:window-maximized="1"
   inkscape:current-layer="g2" />
<style
   type="text/css"
   id="style1">
	.st0{fill:#0B1742;}
	.st1{fill:#5E9AD3;}
</style>
<rect
   width="500"
   height="500"
   fill="white"
   id="rect1" />
<g
   id="g2">
	
	<path
   class="st1"
   d="M 258.01282,248.25091 V 91.428571 h -13.73627 v 34.340659 c -67.53662,2.28938 -123.62637,45.78755 -137.36263,101.87729 h 36.63004 c 12.59157,-45.78755 52.65567,-80.12821 100.73259,-82.41758 V 249.3956 H 71.428571 v 13.73627 h 30.906589 c 4.57876,66.39193 65.24725,120.1923 140.79671,123.62637 v 33.19597 h 13.73626 V 263.13187 H 361.0348 c -3.43407,49.2216 -37.77473,89.28571 -84.70697,100.7326 v 20.60439 c 66.39194,-10.3022 116.75824,-60.6685 121.337,-121.33699 h 30.90659 V 248.25091 Z M 244.27655,366.15384 C 188.18681,362.71977 143.54396,318.07692 140.10989,261.98718 H 244.27655 Z M 358.74542,227.64652 h 36.63003 c -12.59157,-51.51099 -58.37912,-90.4304 -116.75824,-100.7326 v 20.60439 c 38.91941,10.3022 69.82601,41.20879 80.12821,80.12821"
   id="path2"
   style="stroke-width:11.4469" />
</g>
</svg>
