<?xml version="1.0" encoding="UTF-8" standalone="no"?>
<svg
   data-name="Layer 1"
   viewBox="-100 -100 700 700"
   x="0px"
   y="0px"
   version="1.1"
   id="svg2"
   sodipodi:docname="noun-phone-4084329.svg"
   width="700"
   height="700"
   inkscape:version="1.4 (e7c3feb1, 2024-10-09)"
   xmlns:inkscape="http://www.inkscape.org/namespaces/inkscape"
   xmlns:sodipodi="http://sodipodi.sourceforge.net/DTD/sodipodi-0.dtd"
   xmlns="http://www.w3.org/2000/svg"
   xmlns:svg="http://www.w3.org/2000/svg"
   xmlns:rdf="http://www.w3.org/1999/02/22-rdf-syntax-ns#"
   xmlns:cc="http://creativecommons.org/ns#"
   xmlns:dc="http://purl.org/dc/elements/1.1/">
  <defs
     id="defs2" />
  <sodipodi:namedview
     id="namedview2"
     pagecolor="#ffffff"
     bordercolor="#000000"
     borderopacity="0.25"
     inkscape:showpageshadow="2"
     inkscape:pageopacity="0.0"
     inkscape:pagecheckerboard="0"
     inkscape:deskcolor="#d1d1d1"
     inkscape:zoom="0.46671799"
     inkscape:cx="80.348307"
     inkscape:cy="396.38498"
     inkscape:window-width="1472"
     inkscape:window-height="801"
     inkscape:window-x="0"
     inkscape:window-y="34"
     inkscape:window-maximized="1"
     inkscape:current-layer="svg2" />
  <title
     id="title1">Mini mobile</title>
  <rect width="500" height="500" fill="white"/>
<path
     d="M 335.86842,0 H 165.07895 A 72.578947,72.578947 0 0 0 92.5,72.473684 V 427.52632 A 72.578947,72.578947 0 0 0 165.07895,500 h 170.78947 a 72.421053,72.421053 0 0 0 72.42105,-72.47368 V 72.473684 A 72.421053,72.421053 0 0 0 335.86842,0 Z m -85.47368,471.05263 a 26.315789,26.315789 0 1 1 26.31579,-26.31579 26.315789,26.315789 0 0 1 -26.31579,26.31579 z M 381.97368,386.84211 H 118.81579 V 86.842105 h 263.15789 z"
     id="path1"
     style="stroke-width:5.26316" />
  <metadata
     id="metadata2">
    <rdf:RDF>
      <cc:Work
         rdf:about="">
        <dc:title>Mini mobile</dc:title>
      </cc:Work>
    </rdf:RDF>
  </metadata>
</svg>
