<?xml version="1.0" encoding="UTF-8" standalone="no"?>
<svg
   version="1.1"
   viewBox="-5 -10 500 500"
   id="svg5"
   sodipodi:docname="noun-robot-7739991.svg"
   width="500"
   height="500"
   inkscape:version="1.4 (e7c3feb1, 2024-10-09)"
   xmlns:inkscape="http://www.inkscape.org/namespaces/inkscape"
   xmlns:sodipodi="http://sodipodi.sourceforge.net/DTD/sodipodi-0.dtd"
   xmlns="http://www.w3.org/2000/svg"
   xmlns:svg="http://www.w3.org/2000/svg">
  <defs
     id="defs5" />
  <sodipodi:namedview
     id="namedview5"
     pagecolor="#ffffff"
     bordercolor="#000000"
     borderopacity="0.25"
     inkscape:showpageshadow="2"
     inkscape:pageopacity="0.0"
     inkscape:pagecheckerboard="0"
     inkscape:deskcolor="#d1d1d1"
     inkscape:zoom="0.45192203"
     inkscape:cx="-111.74494"
     inkscape:cy="413.78819"
     inkscape:window-width="1472"
     inkscape:window-height="801"
     inkscape:window-x="0"
     inkscape:window-y="34"
     inkscape:window-maximized="1"
     inkscape:current-layer="svg5" />
  <g
     id="g5"
     transform="matrix(7.9365079,0,0,7.9365079,-151.8254,-156.41746)">
    <path
       d="m 60,58.5 c 2.6289,0 5,-1.582 6.0039,-4.0117 1.0078,-2.4297 0.45312,-5.2266 -1.4062,-7.0859 -1.85932,-1.8593 -4.6562,-2.4141 -7.0859,-1.4062 -2.4297,1.0039 -4.0117,3.375 -4.0117,6.0039 0.0039,3.5898 2.9102,6.4961 6.5,6.5 z m 0,-10 c 1.4141,0 2.6914,0.85156 3.2344,2.1602 0.53906,1.3086 0.24219,2.8125 -0.75781,3.8164 -1.0039,1 -2.5078,1.2969 -3.8164,0.75781 -1.3086,-0.54297 -2.1602,-1.8203 -2.1602,-3.2344 0.0039,-1.9336 1.5664,-3.4961 3.5,-3.5 z"
       id="path1" />
    <path
       d="m 40,58.5 c 2.6289,0 5,-1.582 6.0039,-4.0117 1.0078,-2.4297 0.45312,-5.2266 -1.4062,-7.0859 -1.85932,-1.8593 -4.6562,-2.4141 -7.0859,-1.4062 -2.4297,1.0039 -4.0117,3.375 -4.0117,6.0039 0.0039,3.5898 2.9102,6.4961 6.5,6.5 z m 0,-10 c 1.4141,0 2.6914,0.85156 3.2344,2.1602 0.53906,1.3086 0.24219,2.8125 -0.75781,3.8164 -1.0039,1 -2.5078,1.2969 -3.8164,0.75781 -1.3086,-0.54297 -2.1602,-1.8203 -2.1602,-3.2344 0.0039,-1.9336 1.5664,-3.4961 3.5,-3.5 z"
       id="path2" />
    <path
       d="m 18.5,61 c 0.0039,3.0352 2.4648,5.4961 5.5,5.5 h 0.5 V 67 c 0.0078,6.3477 5.1523,11.492 11.5,11.5 H 64 C 70.3477,78.492188 75.492,73.3477 75.5,67 V 66.5 H 76 c 3.0352,-0.0039 5.4961,-2.4648 5.5,-5.5 V 53 C 81.496094,49.9648 79.0352,47.5039 76,47.5 H 75.5 V 47 C 75.492188,40.6523 70.3477,35.508 64,35.5 H 51.5 v -3.2344 c 2.6406,-0.75 4.3242,-3.3281 3.9492,-6.0469 C 55.07029,23.496 52.7461,21.4726 50,21.4726 c -2.7461,0 -5.0703,2.0234 -5.4492,4.7461 -0.375,2.7188 1.3086,5.2969 3.9492,6.0469 V 35.5 H 36 C 29.6523,35.5078 24.508,40.6523 24.5,47 v 0.5 H 24 c -3.0352,0.0039 -5.4961,2.4648 -5.5,5.5 z m 57,-10.5 H 76 c 1.3789,0 2.5,1.1211 2.5,2.5 v 8 c 0,1.3789 -1.1211,2.5 -2.5,2.5 H 75.5 Z M 47.5,27 c 0,-1.0117 0.60938,-1.9219 1.543,-2.3086 0.93359,-0.38672 2.0117,-0.17578 2.7266,0.53906 0.71484,0.71484 0.92578,1.793 0.53906,2.7266 -0.38672,0.93359 -1.2969,1.543 -2.3086,1.543 -1.3789,0 -2.5,-1.1211 -2.5,-2.5 z m -20,20 c 0.0039,-4.6914 3.8086,-8.4961 8.5,-8.5 h 28 c 4.6914,0.0039 8.4961,3.8086 8.5,8.5 v 20 c -0.0039,4.6914 -3.8086,8.4961 -8.5,8.5 H 36 C 31.3086,75.4961 27.5039,71.6914 27.5,67 Z m -6,6 c 0,-1.3789 1.1211,-2.5 2.5,-2.5 h 0.5 v 13 H 24 c -1.3789,0 -2.5,-1.1211 -2.5,-2.5 z"
       id="path3" />
    <path
       d="M 60,65.5 H 40 c -0.82812,0 -1.5,0.67188 -1.5,1.5 0,0.82812 0.67188,1.5 1.5,1.5 h 20 c 0.82812,0 1.5,-0.67188 1.5,-1.5 0,-0.82812 -0.67188,-1.5 -1.5,-1.5 z"
       id="path4" />
  </g>
</svg>
